<svg viewBox="0 0 420 48" xmlns="http://www.w3.org/2000/svg">
  <defs>
    <linearGradient id="lineGlow" x1="0" y1="0" x2="1" y2="0">
      <stop offset="0%" stop-color="#6dff73" stop-opacity="0"/>
      <stop offset="50%" stop-color="#6dff73" stop-opacity="0.9"/>
      <stop offset="100%" stop-color="#6dff73" stop-opacity="0"/>
    </linearGradient>
    <radialGradient id="coreGlow" cx="50%" cy="50%" r="50%">
      <stop offset="0%" stop-color="#6dff73" stop-opacity="1"/>
      <stop offset="100%" stop-color="#6dff73" stop-opacity="0"/>
    </radialGradient>
  </defs>

  <line x1="0" y1="24" x2="136" y2="24" stroke="url(#lineGlow)" stroke-width="1.5" opacity="0.75"/>
  <line x1="284" y1="24" x2="420" y2="24" stroke="url(#lineGlow)" stroke-width="1.5" opacity="0.75"/>

  <circle cx="210" cy="24" r="15" fill="url(#coreGlow)" opacity="0.9"/>
  <path d="M 210 8 C 198 20, 188 19, 178 24 C 188 29, 198 28, 210 40 C 222 28, 232 29, 242 24 C 232 19, 222 20, 210 8 Z" fill="#6dff73"/>
  <path d="M 210 13 C 203 19, 196 20, 190 24 C 196 28, 203 29, 210 35 C 217 29, 224 28, 230 24 C 224 20, 217 19, 210 13 Z" fill="#09110b" opacity="0.95"/>
  <path d="M 196 25 C 200 18, 205 17, 210 22 C 215 17, 220 18, 224 25 C 220 23, 215 26, 210 31 C 205 26, 200 23, 196 25 Z" fill="#6dff73"/>
</svg>
