<svg width="1200" height="110" viewBox="0 0 1200 110" xmlns="http://www.w3.org/2000/svg" role="img" aria-labelledby="batDividerTitle batDividerDesc">
  <title id="batDividerTitle">Bat Divider</title>
  <desc id="batDividerDesc">A horizontal decorative divider line with a centered bat symbol.</desc>
  <defs>
    <linearGradient id="lineGlow" x1="0" y1="0" x2="1" y2="0">
      <stop offset="0%" stop-color="#0ff" stop-opacity="0"/>
      <stop offset="50%" stop-color="#7df9ff" stop-opacity="0.9"/>
      <stop offset="100%" stop-color="#0ff" stop-opacity="0"/>
    </linearGradient>
  </defs>

  <rect width="1200" height="110" fill="none"/>
  <line x1="60" y1="55" x2="480" y2="55" stroke="url(#lineGlow)" stroke-width="2"/>
  <line x1="720" y1="55" x2="1140" y2="55" stroke="url(#lineGlow)" stroke-width="2"/>

  <path d="M600 61c12-14 24-21 36-21 11 0 20 5 28 13 9-6 18-8 27-6 9 3 17 10 24 22-10-4-19-3-26 0-7 4-14 10-20 20-6-10-13-16-20-20-7-4-16-4-25 0-8-12-16-19-24-22-9-2-18 0-27 6 8-8 17-13 28-13 12 0 24 7 35 21z" fill="#d8e3ff"/>
</svg>
