<svg viewBox="0 0 500 180" xmlns="http://www.w3.org/2000/svg">
  <defs>
    <linearGradient id="nightSky" x1="0" y1="0" x2="0" y2="1">
      <stop offset="0%" stop-color="#050812"/>
      <stop offset="100%" stop-color="#111a31"/>
    </linearGradient>
    <radialGradient id="signalGlow" cx="50%" cy="50%" r="50%">
      <stop offset="0%" stop-color="#f7f1c8" stop-opacity="1"/>
      <stop offset="55%" stop-color="#d6ff72" stop-opacity="0.9"/>
      <stop offset="100%" stop-color="#d6ff72" stop-opacity="0"/>
    </radialGradient>
    <linearGradient id="beam" x1="0" y1="0" x2="1" y2="0">
      <stop offset="0%" stop-color="#c5ff5d" stop-opacity="0"/>
      <stop offset="50%" stop-color="#c5ff5d" stop-opacity="0.55"/>
      <stop offset="100%" stop-color="#c5ff5d" stop-opacity="0"/>
    </linearGradient>
  </defs>

  <rect width="500" height="180" rx="22" fill="url(#nightSky)"/>

  <g opacity="0.95">
    <path d="M 0 136 L 48 122 L 92 130 L 132 108 L 176 118 L 208 96 L 248 112 L 290 88 L 328 106 L 366 92 L 410 116 L 460 100 L 500 112 L 500 180 L 0 180 Z" fill="#04060c"/>
    <rect x="38" y="92" width="22" height="88" fill="#060810"/>
    <rect x="70" y="76" width="30" height="104" fill="#070a12"/>
    <rect x="112" y="102" width="24" height="78" fill="#05070e"/>
    <rect x="150" y="70" width="28" height="110" fill="#060810"/>
    <rect x="194" y="98" width="24" height="82" fill="#070a12"/>
    <rect x="230" y="60" width="30" height="120" fill="#05070e"/>
    <rect x="276" y="96" width="22" height="84" fill="#060810"/>
    <rect x="312" y="78" width="28" height="102" fill="#070a12"/>
    <rect x="356" y="104" width="24" height="76" fill="#05070e"/>
    <rect x="392" y="68" width="32" height="112" fill="#060810"/>
    <rect x="442" y="94" width="22" height="86" fill="#070a12"/>
  </g>

  <ellipse cx="250" cy="74" rx="66" ry="66" fill="url(#signalGlow)"/>
  <ellipse cx="250" cy="74" rx="24" ry="24" fill="#f8f4d8"/>

  <path d="M 250 26 C 236 40, 222 42, 216 54 C 210 42, 196 40, 182 26 C 195 29, 208 40, 216 49 C 224 40, 237 29, 250 26 Z" fill="#030308"/>
  <path d="M 250 26 C 264 40, 278 42, 284 54 C 290 42, 304 40, 318 26 C 305 29, 292 40, 284 49 C 276 40, 263 29, 250 26 Z" fill="#030308"/>
  <path d="M 250 36 C 241 44, 233 45, 226 50 C 233 54, 241 55, 250 62 C 259 55, 267 54, 274 50 C 267 45, 259 44, 250 36 Z" fill="#030308"/>

  <polygon points="250,60 500,12 500,58 266,84" fill="url(#beam)"/>
  <polygon points="250,60 0,12 0,58 234,84" fill="url(#beam)"/>

  <g fill="#dbe6ff" opacity="0.75">
    <circle cx="58" cy="28" r="1.2"/>
    <circle cx="114" cy="38" r="0.9"/>
    <circle cx="192" cy="24" r="1.1"/>
    <circle cx="334" cy="34" r="1.2"/>
    <circle cx="420" cy="24" r="1"/>
  </g>
</svg>