<svg viewBox="0 0 1200 260" xmlns="http://www.w3.org/2000/svg">
  <defs>
    <linearGradient id="sky" x1="0" y1="0" x2="0" y2="1">
      <stop offset="0%" stop-color="#02030a"/>
      <stop offset="45%" stop-color="#0b1022"/>
      <stop offset="100%" stop-color="#191f39"/>
    </linearGradient>
    <radialGradient id="moonGlow" cx="50%" cy="50%" r="50%">
      <stop offset="0%" stop-color="#fff8d6" stop-opacity="0.95"/>
      <stop offset="65%" stop-color="#fff8d6" stop-opacity="0.22"/>
      <stop offset="100%" stop-color="#fff8d6" stop-opacity="0"/>
    </radialGradient>
    <linearGradient id="beam" x1="0" y1="0" x2="0" y2="1">
      <stop offset="0%" stop-color="#ffe89d" stop-opacity="0.45"/>
      <stop offset="100%" stop-color="#ffe89d" stop-opacity="0"/>
    </linearGradient>
    <linearGradient id="titleGlow" x1="0" y1="0" x2="1" y2="0">
      <stop offset="0%" stop-color="#f7f0c8"/>
      <stop offset="50%" stop-color="#a1ff5e"/>
      <stop offset="100%" stop-color="#f7f0c8"/>
    </linearGradient>
  </defs>

  <rect width="1200" height="260" fill="url(#sky)"/>

  <g fill="#ffffff">
    <circle cx="80" cy="34" r="1.1" opacity="0.8"/>
    <circle cx="150" cy="66" r="0.9" opacity="0.6"/>
    <circle cx="240" cy="26" r="1.3" opacity="0.75"/>
    <circle cx="320" cy="52" r="1" opacity="0.5"/>
    <circle cx="410" cy="30" r="1.2" opacity="0.7"/>
    <circle cx="520" cy="44" r="1" opacity="0.6"/>
    <circle cx="640" cy="24" r="1.25" opacity="0.8"/>
    <circle cx="760" cy="58" r="1" opacity="0.55"/>
    <circle cx="900" cy="28" r="1.15" opacity="0.7"/>
    <circle cx="1030" cy="48" r="1" opacity="0.5"/>
    <circle cx="1120" cy="30" r="1.2" opacity="0.75"/>
  </g>

  <circle cx="960" cy="72" r="82" fill="url(#moonGlow)"/>
  <circle cx="960" cy="72" r="36" fill="#fef7db"/>

  <polygon points="920,260 1000,260 890,56 852,74" fill="url(#beam)"/>

  <g fill="#020308">
    <rect x="0" y="164" width="42" height="96"/>
    <rect x="48" y="132" width="26" height="128"/>
    <rect x="80" y="146" width="30" height="114"/>
    <rect x="116" y="110" width="22" height="150"/>
    <polygon points="116,110 127,88 138,110"/>
    <rect x="144" y="156" width="46" height="104"/>
    <rect x="196" y="126" width="34" height="134"/>
    <rect x="236" y="168" width="40" height="92"/>
    <rect x="284" y="102" width="26" height="158"/>
    <rect x="314" y="142" width="54" height="118"/>
    <rect x="374" y="116" width="28" height="144"/>
    <rect x="410" y="150" width="44" height="110"/>
    <rect x="462" y="92" width="26" height="168"/>
    <polygon points="462,92 475,66 488,92"/>
    <rect x="494" y="138" width="48" height="122"/>
    <rect x="548" y="156" width="36" height="104"/>
    <rect x="590" y="120" width="28" height="140"/>
    <rect x="624" y="144" width="54" height="116"/>
    <rect x="686" y="100" width="24" height="160"/>
    <rect x="718" y="138" width="44" height="122"/>
    <rect x="768" y="114" width="30" height="146"/>
    <rect x="804" y="154" width="52" height="106"/>
    <rect x="866" y="124" width="26" height="136"/>
    <rect x="900" y="146" width="72" height="114"/>
    <rect x="980" y="132" width="34" height="128"/>
    <rect x="1020" y="158" width="44" height="102"/>
    <rect x="1070" y="118" width="28" height="142"/>
    <rect x="1104" y="146" width="60" height="114"/>
    <rect x="1170" y="170" width="30" height="90"/>
  </g>

  <g fill="#04050b">
    <path d="M 305 92 C 294 82, 276 84, 272 96 C 268 84, 250 82, 239 92 C 250 90, 264 98, 272 109 C 280 98, 294 90, 305 92 Z"/>
    <path d="M 620 62 C 610 53, 594 55, 590 65 C 586 55, 570 53, 560 62 C 570 60, 582 67, 590 76 C 598 67, 610 60, 620 62 Z" opacity="0.85"/>
    <path d="M 720 118 C 710 109, 694 111, 690 121 C 686 111, 670 109, 660 118 C 670 116, 682 123, 690 132 C 698 123, 710 116, 720 118 Z" opacity="0.7"/>
  </g>

  <g transform="translate(60 56)">
    <text x="0" y="0" fill="url(#titleGlow)" font-family="Impact, Haettenschweiler, 'Arial Narrow Bold', sans-serif" font-size="36" letter-spacing="6">GOTHAM MODE</text>
    <text x="2" y="30" fill="#d8defa" font-family="Arial, sans-serif" font-size="13" letter-spacing="4" opacity="0.86">NIGHT SHIFT // BUILD FAST // SHIP HARD</text>
  </g>
</svg>
